<?xml version="1.0" encoding="UTF-8"?>
<svg id="Layer_1" data-name="Layer 1" xmlns="http://www.w3.org/2000/svg" viewBox="0 0 199.05 173.12">
  <defs>
    <style>
      .cls-1, .cls-2, .cls-3, .cls-4, .cls-5, .cls-6, .cls-7, .cls-8, .cls-9 {
        stroke: #2c1d2c;
      }

      .cls-1, .cls-2, .cls-3, .cls-5, .cls-6, .cls-9 {
        stroke-width: .5px;
      }

      .cls-1, .cls-2, .cls-4, .cls-5, .cls-6, .cls-7, .cls-8, .cls-9 {
        stroke-miterlimit: 10;
      }

      .cls-1, .cls-10 {
        fill: #fed7aa;
      }

      .cls-11 {
        fill: #f7f0e5;
      }

      .cls-12 {
        fill: #050606;
      }

      .cls-13 {
        fill: #ebe052;
      }

      .cls-14 {
        fill: #541a0a;
        opacity: .14;
      }

      .cls-15 {
        fill: #dedfdb;
        opacity: .2;
      }

      .cls-2, .cls-16 {
        fill: #fdc889;
      }

      .cls-17, .cls-8 {
        fill: #2c1d2c;
      }

      .cls-3 {
        stroke-linecap: round;
        stroke-linejoin: round;
      }

      .cls-3, .cls-5 {
        fill: #916778;
      }

      .cls-4 {
        fill: #411c0d;
        stroke-width: .34px;
      }

      .cls-18 {
        fill: #edad9c;
      }

      .cls-19 {
        opacity: .21;
      }

      .cls-19, .cls-20 {
        fill: #ba5d27;
      }

      .cls-20 {
        opacity: .1;
      }

      .cls-21 {
        fill: #653614;
        opacity: .22;
      }

      .cls-6 {
        fill: #77cccb;
      }

      .cls-7 {
        fill: #f8d1a6;
        stroke-width: .5px;
      }

      .cls-8 {
        stroke-width: .1px;
      }

      .cls-9 {
        fill: none;
      }
    </style>
  </defs>
  <rect class="cls-2" x="86.81" y="93.65" width="24.63" height="28.64"/>
  <rect class="cls-19" x="86.92" y="93.65" width="24.38" height="28.64"/>
  <polygon class="cls-21" points="86.92 104.86 104.24 100.8 86.92 97.1 86.92 104.86"/>
  <path class="cls-10" d="M77.04,72.18c0,2.41.83,6.82-1.05,6.82s-5.77-4.41-5.77-6.82,1.53-4.37,3.41-4.37,3.41,1.96,3.41,4.37Z"/>
  <path class="cls-1" d="M77.04,72.18c0,2.41.83,6.82-1.05,6.82s-5.77-4.41-5.77-6.82,1.53-4.37,3.41-4.37,3.41,1.96,3.41,4.37Z"/>
  <path class="cls-16" d="M78,72.82c0,1.77.61,5-.77,5s-4.23-3.23-4.23-5,1.12-3.21,2.5-3.21,2.5,1.44,2.5,3.21Z"/>
  <path class="cls-1" d="M121.17,72.18c0,2.41-.83,6.82,1.05,6.82s5.77-4.41,5.77-6.82-1.53-4.37-3.41-4.37-3.41,1.96-3.41,4.37Z"/>
  <path class="cls-16" d="M120.21,72.82c0,1.77-.61,5,.77,5s4.23-3.23,4.23-5-1.12-3.21-2.5-3.21-2.5,1.44-2.5,3.21Z"/>
  <path class="cls-7" d="M99.11,52.41h-18.03c-3.99,0-7.14,2.75-6.84,6.78l2.36,22.25c.24,3.22,1.65,6.23,3.97,8.46l7.26,7.65c2.01,1.94,4.59,3.16,7.35,3.49l1.83.16c1.31.11,2.62.11,3.92,0l1.86-.16c2.76-.33,5.34-1.55,7.35-3.49l7.26-7.65c2.31-2.22,3.72-5.24,3.97-8.46l2.36-22.25c.3-4.03-2.85-6.78-6.84-6.78h-17.78Z"/>
  <path class="cls-20" d="M76.4,53.81c-1.62,1.19-2.59,3.08-2.42,5.39l.32,2.98c.29-2.9,1.01-5.71,2.1-8.36Z"/>
  <path class="cls-20" d="M75.72,75.39l.65,6.06c.24,3.22,1.67,6.23,4.01,8.46l7.35,7.65c2.04,1.94,4.65,3.16,7.44,3.49l2.82.24c.68.06,1.37.06,2.05,0l2.84-.24c1.06-.13,2.1-.38,3.09-.76-14.13,1.04-26.21-11.37-30.25-24.9Z"/>
  <path class="cls-5" d="M144.77,142.08c.82.03,1.49-.63,1.49-1.45v-10.51c0-5.31-3.08-10-7.62-11.59l-26.87-9.87h0c-7.71,4.85-17.51,4.86-25.23.04l-.06-.04-26.12,9.84c-4.5,1.61-7.56,6.29-7.56,11.57v10.68c0,.8.65,1.45,1.45,1.45,10.89-.07,79.51-.46,90.52-.11Z"/>
  <path class="cls-14" d="M54.28,142.08c-.82.03-1.49-.63-1.49-1.45v-10.51s6.46,8.22,14.91,9.58,78.55,1.04,78.55,1.04c0,.8-.65,1.45-1.45,1.45-10.89-.07-79.51-.46-90.52-.11Z"/>
  <path class="cls-3" d="M99.09,113.34s.75-6.4-4.55-8.2l-8.16-2.59-.1,6.61c0,.52.34.98.85,1.11l11.95,3.07Z"/>
  <path class="cls-3" d="M99.16,113.37s-.75-6.41,4.59-8.22l8.22-2.61.09,6.62c0,.52-.34.98-.85,1.11l-12.05,3.1Z"/>
  <line class="cls-9" x1="99.12" y1="142.2" x2="99.12" y2="112.35"/>
  <circle class="cls-13" cx="93.34" cy="128.08" r="2.33"/>
  <circle class="cls-13" cx="104.91" cy="128.08" r="2.33"/>
  <g>
    <circle class="cls-12" cx="87.04" cy="70.94" r="2.73"/>
    <circle class="cls-11" cx="86.05" cy="69.82" r=".99"/>
  </g>
  <g>
    <circle class="cls-12" cx="109.17" cy="71.09" r="2.73"/>
    <circle class="cls-11" cx="108.19" cy="69.98" r=".99"/>
  </g>
  <path class="cls-17" d="M82.29,69.54c-.73.19,1.99-1.6,4.44-1.6s5.17,1.78,4.44,1.6c-1.03-.26-1.45-.76-4.36-.76-2.38,0-3.66.54-4.52.76Z"/>
  <path class="cls-17" d="M105.37,69.69c-.73.19,1.99-1.6,4.44-1.6s5.17,1.78,4.44,1.6c-1.03-.26-1.45-.76-4.36-.76-2.38,0-3.66.54-4.52.76Z"/>
  <path class="cls-4" d="M114.77,53.52c-.4-.8.93-1.94,1.3-2.64.77-1.47,1.22-3.39,1.05-5.04,2.32.1,4.61,1.71,5.93,3.54,4.97,6.84.96,17.38-.65,24.78-.02-.58-.47-.09-.55-.25s.03-2.44,0-2.89c-.13-1.94-.23-4.24-1.1-5.98-.27-.53-1.03-1.26-1.2-1.8-.49-1.6-.24-3.72-.9-5.58-.25-.7-2.22-4.17-2.84-4.24-.06,0-.84.51-1.05.1Z"/>
  <path class="cls-17" d="M86.38,64.42c1.18-.04,5.07.02,6.06.25,1.22.29,1.52,1.78.33,2.2-4.19-.28-8.56-.97-12.67,0-.79-.16,1.43-1.55,1.76-1.69,1.31-.55,3.04-.71,4.52-.76Z"/>
  <path class="cls-17" d="M107.81,64.41c2.88-.05,7.15-.04,8.43,2.33-2.07-.23-4.01-.42-6.12-.38-1.3.02-5.87.65-6.61.51-1-.19-.92-1.61-.11-2.03.6-.31,3.55-.41,4.41-.42Z"/>
  <path class="cls-18" d="M102.93,88.22c-2.6.64-6.23.69-8.83.08-.02-.25.13-.2.28-.24.48-.13,2.44-.63,2.79-.64.72,0,1.45.42,2.36.07.21-.08.43-.12.65-.06l2.76.79Z"/>
  <path class="cls-17" d="M94.1,88.3c2.6.61,6.24.56,8.83-.08.6-.15,1.97-.24,1.79-1.03.17-.09.61.88.4,1.03-.3-.64-1.7.28-2.28.42-2.8.7-7.08.58-9.81-.34-.46-.15-.86-.79-1.03-.08-.31-.17.18-.94.32-.88-.1.55,1.32.84,1.79.95Z"/>
  <path class="cls-17" d="M96.05,90.6l4.89.04c-1.46.65-3.48.72-4.89-.04Z"/>
  <g>
    <path class="cls-8" d="M95.83,81.97c0,.07-.02.11-.1.1-.43-.21-1.1-.12-1.45-.82-.7-1.39.4-2.31.77-3.47.8-2.53,1.25-5.2,1.25-7.86h.1c.11,2.63-.2,5.26-.96,7.77-.51,1.66-2.21,3.15.39,4.29Z"/>
    <path class="cls-8" d="M101.23,81.39c-1.33-.05-2.14,1.23-3.43.96-.53-.11-1.22-1.11-1.98-.87,0-.12-.4-.1-.05-.39,1.25-.17,1.53,1.21,2.89.96.64-.12,1.85-1.72,2.56-.68Z"/>
    <path class="cls-8" d="M101.04,82.06c.14-.09.46-.36.58-.48,1.14-1.19.93-1.76.24-3.18,1.44,1.11,1.2,3.52-.82,3.67Z"/>
  </g>
  <path class="cls-4" d="M119.15,40.51c.75.9,1.38,1.04,1.87,2.74.96,2.57,1.31,6.87-.03,9.26-3.43,6.13-16.47,8.2-22.88,7.48.56-.57,6.79-4.62,6.91-4.92.02-.04-.26-.74-.37-.75-6.63,4.61-14.85,7.95-23.04,6.1-.32-.07-5.42.06-5.89,5.61-.18,2.21-.21,7.75-.21,7.75-1.28-1.69-2.92-7.86-3.08-8.62-1.75-8.19-.26-9.83-.9-10.34-2.25-1.79.18-7.1.61-10.2,6.39.99,6.73-1.31,11.97-4.12,9.43-5.06,26.77-8.75,35.05,0Z"/>
  <g>
    <path class="cls-6" d="M125.59,58.64h-53.9c-.56,0-1.02-.46-1.02-1.02l-.71-6.36c0-.56.46-1.02,1.02-1.02h55.31c.56,0,1.02.46,1.02,1.02l-.71,6.36c0,.56-.46,1.02-1.02,1.02Z"/>
    <path class="cls-3" d="M126.49,52.52h-55.69c-.56,0-1.02-.53-1.06-1.2l-.86-15.76c-.04-.74.45-1.37,1.06-1.37h57.41c.62,0,1.1.63,1.06,1.37l-.86,15.76c-.04.68-.5,1.2-1.06,1.2Z"/>
    <path class="cls-15" d="M68.65,35.79c-.04-.74.45-1.37,1.06-1.37h57.41c.62,0,1.1.63,1.06,1.37l-.48,8.84-59.05-8.84Z"/>
  </g>
</svg>