<?xml version="1.0" encoding="UTF-8"?>
<svg id="Layer_1" data-name="Layer 1" xmlns="http://www.w3.org/2000/svg" viewBox="0 0 199.05 173.12">
  <defs>
    <style>
      .cls-1 {
        font-family: Archivo-Bold, Archivo;
        font-size: 6.68px;
        font-weight: 700;
      }

      .cls-1, .cls-2 {
        fill: #2c1d2c;
      }

      .cls-3, .cls-4, .cls-5, .cls-6, .cls-7 {
        stroke-linecap: round;
        stroke-linejoin: round;
      }

      .cls-3, .cls-4, .cls-5, .cls-6, .cls-7, .cls-8, .cls-9, .cls-10, .cls-11, .cls-12 {
        stroke: #2c1d2c;
      }

      .cls-3, .cls-7, .cls-8, .cls-10, .cls-11 {
        stroke-width: .5px;
      }

      .cls-3, .cls-11, .cls-12 {
        fill: none;
      }

      .cls-13 {
        fill: #fff;
        opacity: .38;
      }

      .cls-4 {
        stroke-width: .44px;
      }

      .cls-4, .cls-5 {
        fill: #af60a6;
      }

      .cls-5 {
        stroke-width: .48px;
      }

      .cls-14 {
        fill: #006a66;
        opacity: .35;
      }

      .cls-6 {
        stroke-width: .45px;
      }

      .cls-6, .cls-7 {
        fill: #7e4177;
      }

      .cls-8 {
        fill: #ebe052;
      }

      .cls-8, .cls-9, .cls-10, .cls-11, .cls-12 {
        stroke-miterlimit: 10;
      }

      .cls-9 {
        fill: #916778;
        stroke-width: .35px;
      }

      .cls-10 {
        fill: #77cccb;
      }

      .cls-15 {
        letter-spacing: -.03em;
      }

      .cls-12 {
        stroke-width: .5px;
      }
    </style>
  </defs>
  <rect class="cls-10" x="53.52" y="79.12" width="93.11" height="58.7"/>
  <polygon class="cls-14" points="53.52 115.25 54.21 78.98 146.63 79.16 146.63 94.77 53.52 115.25"/>
  <polygon class="cls-5" points="149.86 79.27 49.48 79.27 60.58 49.06 138.77 49.06 149.86 79.27"/>
  <line class="cls-11" x1="87.57" y1="79.33" x2="87.57" y2="138.04"/>
  <g>
    <line class="cls-12" x1="85.07" y1="106.26" x2="85.07" y2="116.17"/>
    <ellipse class="cls-2" cx="85.08" cy="106.62" rx=".99" ry=".92"/>
    <ellipse class="cls-2" cx="85.08" cy="116.17" rx=".99" ry=".92"/>
  </g>
  <path class="cls-7" d="M55.59,85.96c3.82,0,6.92-3.1,6.92-6.92h-13.85c0,3.82,3.1,6.92,6.92,6.92Z"/>
  <path class="cls-7" d="M68.14,85.96c3.82,0,6.92-3.1,6.92-6.92h-13.85c0,3.82,3.1,6.92,6.92,6.92Z"/>
  <path class="cls-7" d="M80.69,85.96c3.82,0,6.92-3.1,6.92-6.92h-13.85c0,3.82,3.1,6.92,6.92,6.92Z"/>
  <path class="cls-7" d="M93.25,85.96c3.82,0,6.92-3.1,6.92-6.92h-13.85c0,3.82,3.1,6.92,6.92,6.92Z"/>
  <path class="cls-7" d="M105.8,85.96c3.82,0,6.92-3.1,6.92-6.92h-13.85c0,3.82,3.1,6.92,6.92,6.92Z"/>
  <path class="cls-7" d="M118.35,85.96c3.82,0,6.92-3.1,6.92-6.92h-13.85c0,3.82,3.1,6.92,6.92,6.92Z"/>
  <path class="cls-7" d="M130.91,85.96c3.82,0,6.92-3.1,6.92-6.92h-13.85c0,3.82,3.1,6.92,6.92,6.92Z"/>
  <path class="cls-7" d="M143.46,85.96c3.82,0,6.92-3.1,6.92-6.92h-13.85c0,3.82,3.1,6.92,6.92,6.92Z"/>
  <rect class="cls-9" x="50.72" y="137.65" width="98.98" height="4.11" rx="1.19" ry="1.19"/>
  <rect class="cls-6" x="57.71" y="45.23" width="83.84" height="3.96" rx="1.26" ry="1.26"/>
  <rect class="cls-8" x="92.76" y="90.29" width="49.07" height="42.89"/>
  <polygon class="cls-13" points="141.55 132.9 92.99 132.9 93.01 106.49 141.55 95.89 141.55 132.9"/>
  <rect class="cls-8" x="59.04" y="90.29" width="23.54" height="42.89"/>
  <polygon class="cls-13" points="82.31 132.93 59.28 132.93 59.28 113.97 82.31 108.68 82.31 132.93"/>
  <g>
    <line class="cls-3" x1="116.84" y1="107.92" x2="112.44" y2="114.95"/>
    <line class="cls-3" x1="125.48" y1="114.22" x2="121.9" y2="119.96"/>
    <line class="cls-3" x1="124.64" y1="105.97" x2="114.12" y2="122.82"/>
  </g>
  <g>
    <line class="cls-3" x1="67.8" y1="107.74" x2="63.4" y2="114.78"/>
    <line class="cls-3" x1="76.44" y1="114.05" x2="72.86" y2="119.78"/>
    <line class="cls-3" x1="75.6" y1="105.8" x2="65.08" y2="122.65"/>
  </g>
  <line class="cls-11" x1="61.22" y1="79.04" x2="69.14" y2="49.06"/>
  <line class="cls-11" x1="73.77" y1="79.04" x2="79.11" y2="49.06"/>
  <line class="cls-11" x1="86.32" y1="79.16" x2="88.63" y2="49.06"/>
  <line class="cls-11" x1="136.59" y1="78.98" x2="128.66" y2="49"/>
  <line class="cls-11" x1="124.03" y1="78.98" x2="118.69" y2="49"/>
  <line class="cls-11" x1="111.48" y1="79.1" x2="109.18" y2="49"/>
  <line class="cls-11" x1="99.16" y1="79.16" x2="98.88" y2="49.25"/>
  <circle class="cls-4" cx="99.02" cy="47.35" r="13.17"/>
  <text class="cls-1" transform="translate(87.48 49.25)"><tspan x="0" y="0">S</tspan><tspan class="cls-15" x="4.53" y="0">T</tspan><tspan x="8.64" y="0">ORE</tspan></text>
</svg>