<?xml version="1.0" encoding="UTF-8"?>
<svg id="Layer_1" data-name="Layer 1" xmlns="http://www.w3.org/2000/svg" viewBox="0 0 199.05 173.12">
  <defs>
    <style>
      .cls-1, .cls-2 {
        fill: #2c1d2c;
      }

      .cls-3 {
        fill: #583c48;
        stroke-width: .35px;
      }

      .cls-3, .cls-4, .cls-5, .cls-6, .cls-7, .cls-8, .cls-2 {
        stroke: #2c1d2c;
      }

      .cls-3, .cls-8 {
        stroke-miterlimit: 10;
      }

      .cls-4, .cls-5, .cls-6, .cls-7, .cls-2 {
        stroke-linecap: round;
        stroke-linejoin: round;
      }

      .cls-4, .cls-6, .cls-8 {
        fill: #f8d1a6;
      }

      .cls-4, .cls-7, .cls-8 {
        stroke-width: .5px;
      }

      .cls-5 {
        fill: #af60a6;
        stroke-width: .5px;
      }

      .cls-6 {
        stroke-width: .54px;
      }

      .cls-9 {
        fill: #dab994;
        opacity: .38;
      }

      .cls-10 {
        fill: #f37059;
      }

      .cls-7 {
        fill: #76cccb;
      }

      .cls-2 {
        stroke-width: .07px;
      }
    </style>
  </defs>
  <path class="cls-3" d="M117.12,62.87c5.09,13.43-10.72,20.87-18.03,20.87s-22.45-8.72-16.71-21.78c4.5-10.24,3.52-27.07,17.18-27.25s13.06,16.28,17.56,28.16Z"/>
  <path class="cls-4" d="M90.18,69.87c3.47-1.58,4.75-7.03,4.89-10.79,3.14,3.73,6.32,3.52,9.34-.17.04,3.91.95,9.33,4.53,10.96,0,0-1.67,15.26-9.29,15.28,0,0-9.31,1.05-9.47-15.28Z"/>
  <path class="cls-8" d="M111.32,100.72c-.46,3.69-.65,5.97.68,9.51-7.7,3.41-17.44,3.52-25.14,0,1.55-4.12,1.22-5.29.68-9.51h23.78Z"/>
  <path class="cls-8" d="M93.99,131.46l-5.69,3.06c-4.12.83-8.81.58-12.31,3.4-8.32.45-18.76.84-24.97-2.72-2.49-1.37-5.06-8.43,1.02-10.87s5.48-1.73,7.3-3.23"/>
  <path class="cls-9" d="M93.99,131.46l-5.69,3.06c-4.12.83-8.81.58-12.31,3.4-8.17.44-18.88.29-24.84-2.91-.24-.13-.63-.53-.81-.74-.37-.41-.97-1.16-1.22-1.87-.18-.5,9.34,2.63,19.48,2.72,10.84.1,22.34-2.83,22.34-2.83"/>
  <path class="cls-7" d="M138.13,127.92c-10.02-3.44-20.04.59-29.81,2.89-1.19-.81-3.93-3.28-3.96-3.25-1.61-.76-3.28-.62-4.59.68-1.7,1.69-.69,3.29-4.24,3.39-.57.02-1-.11-1.53-.17-7.68-.86-24.43-2.99-26.96-2.16-.61-4.85-4.94-7.68-7.69-8.2.2.03.16-.16.17-.17,7.36-1.26,14.85-1.87,22.34-1.36,1.57-3.06,3.79-6.11,5.01-9.34,7.69,3.53,17.44,3.42,25.13,0,.51,1.37,3.41,6.96,4.45,8.47.18.24.56.53.79.73,6.62-.05,15.28-.46,21.65,1.36-1.25.8-2.8,1.09-3.99,2.03-1.15.92-1.83,2.11-2.29,3.49.16.43,4.95.7,5.52,1.61Z"/>
  <path class="cls-8" d="M104.35,127.56c1.24.58,2.7,2.57,3.91,3.4-2.13.5-9.62,2.71-11.29,2.21-.1-.03-1.27-1.3-1.44-1.53,3.55-.11,2.55-1.71,4.25-3.4,1.3-1.3,2.98-1.43,4.59-.68Z"/>
  <path class="cls-4" d="M146.81,124.5c.06.04.97.95,1.02,1.02,1.18,1.5,6.29,11.03-9.77,12.57-8.79.84-45.65,1.11-53.58,1.7-1.57,0-8.12,1.69-8.15,1.7-1.15.33-1.95.15-1.7-1.36.09-.56.92-1.86,1.36-2.21,3.5-2.81,8.19-2.56,12.31-3.4l4.53-3.84c3.73-2.92,5.84,2.13,5.94,2.16,1.67.5,7.36-1.39,9.49-1.89,9.77-2.29,19.79-6.32,29.81-2.89-.57-.91-5.36-1.18-5.52-1.61.46-1.38,1.14-2.56,2.29-3.48s2.74-1.24,3.99-2.04c.05.01.12-.02.17,0,.81.25,7.27,3.16,7.81,3.57Z"/>
  <path class="cls-9" d="M149.13,131.63c-.5,2.78-3.34,5.47-11.42,6.24-8.67.83-45.4,1.17-53.23,1.75-1.55,0-7.89,1.51-7.92,1.52-1.13.33-2.05.44-1.81-1.05.09-.55.99-1.89,1.42-2.23,3.45-2.77,53.45,2.41,72.96-6.22Z"/>
  <path class="cls-4" d="M78.46,79.55c-.42,2.6-2.3,21.39-3.23,23.01-.16.29-3.2,2.39-3.82,2.97-4.16,3.93-7.93,8.31-12.57,11.72-1.62-.58-7.6-2.45-9-2.04-.85.25-1.69,2.28-1.78,3.14-.11,1.01.07,1.99.25,2.97-.8.41-6.03-1.77-6.17-.16-.06.68,2.29,1.01,2.61,1.18,2.8,1.57,5.81,2.86,9.09,1.7,1.72-1.14,5.48-1.73,7.3-3.23.4-.14,12.43-5.25,16.9-9.51,7.54-7.19,8.24-26.32,8.24-26.32,2.17-4.79,3.02-9.96,3.91-15.12-1.37.43-3.16.55-4.42.85-4.29,1.04-6.53,4.08-7.3,8.83ZM50.18,116.74c.55.23,2.61.71,2.8,1.27,1.13,3.33-4.31,3.41-2.8-1.27Z"/>
  <path class="cls-4" d="M113.36,70.72c-1.25-.3-3.04-.42-4.42-.85.89,5.16,1.74,10.32,3.91,15.12,0,0,.69,19.14,8.24,26.32,4.47,4.26,16.5,9.37,16.9,9.51,1.83,1.5,5.59,2.09,7.3,3.23,3.28,1.16,6.29-.12,9.09-1.7.31-.18,2.67-.5,2.61-1.18-.14-1.61-5.37.58-6.17.16.19-.98.36-1.96.25-2.97-.09-.86-.93-2.89-1.78-3.14-1.41-.41-7.38,1.46-9,2.04-4.64-3.4-8.41-7.79-12.57-11.72-.62-.58-3.66-2.69-3.82-2.97-.92-1.62-2.8-20.41-3.23-23.01-.77-4.75-3.01-7.79-7.3-8.83ZM146.14,118.02c.19-.57,2.25-1.04,2.8-1.27,1.51,4.68-3.93,4.6-2.8,1.27Z"/>
  <path class="cls-5" d="M113.83,91.24c-1.55,2.44-2.15,6.59-2.51,9.49h-23.79c-.36-2.9-.97-7.04-2.5-9.49-.23-.35-1.76-3.31-.5-6.07,2.13-4.82,2.97-10.02,3.84-15.21.55-.17,1.95-.76,2.51-1.02-.42.77,1.6,14.45,8.55,14.68,6.94-.22,8.96-13.9,8.54-14.68.56.25,1.96.84,2.51,1.02.88,5.19,1.72,10.39,3.85,15.21,1.25,2.76-.29,5.71-.5,6.07Z"/>
  <path class="cls-6" d="M109.6,46.12c0,7.64-4.49,17.11-10.04,17.11s-10.04-9.46-10.04-17.11,4.49-10.57,10.04-10.57,10.04,2.93,10.04,10.57Z"/>
  <path class="cls-10" d="M102,57.69c-.85.39-1.19,1.47-2.54,1.52-.02,0-.03,0-.05,0s-.03,0-.05,0c-1.35-.05-1.68-1.13-2.54-1.52,1.63.41,2.06-.02,2.56-.1h.06c.51.07.94.51,2.56.1Z"/>
  <path class="cls-10" d="M99.45,57.2h-.04s.03-.01.04-.01h0Z"/>
  <path class="cls-10" d="M99.47,59.21h0s-.06.01-.06.01c.02,0,.04,0,.06-.01Z"/>
  <path class="cls-10" d="M99.35,59.21s.04.01.06.01h-.06Z"/>
  <path class="cls-10" d="M99.41,57.2h-.04s.03-.01.04,0Z"/>
  <path class="cls-1" d="M105.22,49.97c.63.37-.78,1.34-1.43,1.39-.94.09-1.68-.21-2.39-.8.81.1,1.23.45,2.29.38.74-.05,1.25-.69,1.53-.98Z"/>
  <path class="cls-1" d="M93.35,49.97c-.63.37.78,1.34,1.43,1.39.94.09,1.68-.21,2.39-.8-.81.1-1.23.45-2.29.38-.74-.05-1.25-.69-1.53-.98Z"/>
  <path class="cls-1" d="M102.99,47.51c1.07-.19,3.11-.1,3.65,1.1-.86-.79-4.81.41-5.01.25-.85-.63.86-1.27,1.36-1.36Z"/>
  <path class="cls-1" d="M96.21,47.51c-1.07-.19-3.11-.1-3.65,1.1.86-.79,4.81.41,5.01.25.85-.63-.86-1.27-1.36-1.36Z"/>
  <path class="cls-3" d="M99.56,34.71c-10.77,0-12.49,10.81-14.54,18.78,2.1-1.64,7.17.65,14.67-11.04,5.11,11.16,13.13,9.38,14.6,10.76-2.64-11.47-5.72-18.51-14.73-18.51Z"/>
  <g>
    <path class="cls-2" d="M98.47,55.32s0,.04-.04.04c-.16-.08-.4-.05-.53-.3-.26-.51.15-.85.28-1.28.29-.93.46-1.91.46-2.89h.04c.04.97-.07,1.93-.35,2.86-.19.61-.81,1.16.14,1.58Z"/>
    <path class="cls-2" d="M100.46,55.11c-.49-.02-.79.45-1.26.35-.2-.04-.45-.41-.73-.32,0-.05-.15-.04-.02-.14.46-.06.56.44,1.06.35.24-.04.68-.63.94-.25Z"/>
    <path class="cls-2" d="M100.39,55.36c.05-.03.17-.13.21-.18.42-.44.34-.65.09-1.17.53.41.44,1.29-.3,1.35Z"/>
  </g>
</svg>