<?xml version="1.0" encoding="UTF-8"?>
<svg id="Layer_1" xmlns="http://www.w3.org/2000/svg" xmlns:xlink="http://www.w3.org/1999/xlink" version="1.1" viewBox="0 0 199.05 241.6">
  <!-- Generator: Adobe Illustrator 30.1.0, SVG Export Plug-In . SVG Version: 2.1.1 Build 136)  -->
  <defs>
    <style>
      .st0, .st1, .st2, .st3 {
        fill: none;
      }

      .st1 {
        stroke-width: .91px;
      }

      .st1, .st2 {
        stroke: #916778;
      }

      .st1, .st2, .st3 {
        stroke-linecap: round;
        stroke-linejoin: round;
      }

      .st4 {
        fill: #583c48;
      }

      .st5, .st6 {
        isolation: isolate;
      }

      .st3 {
        stroke: #583c48;
        stroke-width: .95px;
      }

      .st7 {
        fill: #916778;
      }

      .st8 {
        fill: #3d9e8d;
      }

      .st6 {
        fill: #76cccb;
        font-family: ArchivoBlack-Regular, 'Archivo Black';
        font-size: 17.24px;
      }

      .st9 {
        clip-path: url(#clippath);
      }

      .st10 {
        fill: #90d3d1;
      }
    </style>
    <clipPath id="clippath">
      <circle class="st0" cx="100.76" cy="109.27" r="48.13"/>
    </clipPath>
  </defs>
  <path class="st4" d="M132.15,208.56c.15,3.58-13.9,6.49-31.05,6.49s-30.94-2.91-31.05-6.49c-.15-5.1-2.23-6.08,15.61-8.58,7.65-1.08,25.34-1.32,37.95,1.16,10.53,2.07,8.36,2.99,8.55,7.42h-.01Z"/>
  <ellipse class="st7" cx="101.1" cy="204.75" rx="31.05" ry="5.63"/>
  <line class="st3" x1="83.35" y1="135.33" x2="83.35" y2="204.75"/>
  <line class="st3" x1="118.17" y1="135.33" x2="118.17" y2="204.75"/>
  <g>
    <line class="st2" x1="100.76" y1="33.86" x2="100.76" y2="181.26"/>
    <circle class="st7" cx="100.76" cy="34.41" r="2.21"/>
    <circle class="st7" cx="100.76" cy="181.26" r="2.21"/>
  </g>
  <g class="st5">
    <text class="st6" transform="translate(94.31 26.77)"><tspan x="0" y="0">N</tspan></text>
  </g>
  <g class="st5">
    <text class="st6" transform="translate(95.09 197.53)"><tspan x="0" y="0">S</tspan></text>
  </g>
  <g class="st5">
    <text class="st6" transform="translate(181.01 114.45)"><tspan x="0" y="0">E</tspan></text>
  </g>
  <g class="st5">
    <text class="st6" transform="translate(2.99 114.45)"><tspan x="0" y="0">W</tspan></text>
  </g>
  <circle class="st10" cx="100.76" cy="109.14" r="48.13"/>
  <g class="st9">
    <g>
      <path class="st8" d="M78.08,114.67c.12,1.84,1.48,3.37,3.29,3.71.72-.07,1.43-.07,2.15,0,2.78.74,1.25,5.7,3.55,7.39.71.43,1.54.65,2.36.65,1.76.02,3.49.43,5.08,1.18,1.62.8,2.47,2.62,2.03,4.39-.44,1.18-1.64,1.97-2.02,3.18-.74,2.44,2.22,5.06,1.11,7.37-3.05-.17-6.11.17-9.07.98-.48,1.61-.13,3.36.96,4.65l-4.17.73c1.25,1.36,1.25,3.45,0,4.81-1.32,1.25-3.12,1.86-4.93,1.66-1.24.06-2.44-.54-3.12-1.58-.25-2.8,1.24-5.46,3.76-6.72-2.91-3.22-4.35-7.5-3.98-11.82-2.15.5-4.52.98-6.5,0s-2.9-4.15-1.08-5.42l-5.01-1.32c-1.22-1.54-.96-3.77.58-4.98,1.19-.95,2.87-1.03,4.15-.19.79-.72.45-2.09-.27-2.88s-1.73-1.31-2.36-2.18c-1.48-2-.5-4.81.54-7.09.15-.45.4-.85.74-1.18.64-.38,1.4-.5,2.12-.33l6.22.63c-.05-1.92,1.47-3.5,3.37-3.55.27,0,.54.02.82.07,0,0,.31,1.73.35,1.89.25.53.25,1.14,0,1.67-.53,1.36-.76,2.83-.66,4.29Z"/>
      <path class="st8" d="M129.62,124.44c.53,2.9.93,6.3-1.18,8.39-.9.72-1.82,1.41-2.79,2.03-2.51,2.06-3.06,5.65-3.06,8.89,0,2.72.53,5.91,2.96,7.15,2.85,1.47,6.15-.74,8.51-2.91,5.39-4.92,10.64-10.64,12.41-17.73,1.64-6.41.33-13.19,1.02-19.78.47-2.73.73-5.5.76-8.28-.22-3.62-1.83-7.16-1.29-10.76.19-.59.14-1.22-.13-1.77-.56-.77-1.77-.45-2.58,0-1.35.82-2.59,1.95-4.15,2.2s-3.46-1.04-3.03-2.55c-.52,3.74-.77,7.52-.73,11.29-1.77-1.86-3.95-3.29-6.36-4.16l-1.02,1.83.87-4.94c.2-.63.14-1.3-.15-1.89-.63-.91-2.01-.63-3.05-.26-.7.26-1.56.78-1.4,1.5.14.35.39.66.71.89.83.69,1.11,1.82.71,2.81-.86,1.61-3.25.92-5.08.97-2.91.25-5.06,2.8-4.81,5.71.01.2.05.41.08.61-1.35,1.03-3.8.69-4.35,2.28-.12.47-.12.98,0,1.45.84,5.63,1.77,11.49,5.08,16.13.7.97,1.53,2.27.83,3.25l2.85-.8c-1.47.45-2.41,1.87-2.25,3.39.26,1.51,1.61,2.59,3.14,2.51,2.36-.22,3.23-4,1.18-5.24-.8-.32-1.6-.7-2.36-1.1-.5-.43-.85-.99-1.02-1.63-.8-2.57.63-5.28,3.18-6.09,2.57-.8,5.28.63,6.09,3.18.21.66.27,1.37.19,2.06l4.89,1.56"/>
      <path class="st8" d="M65.91,92.66c.9-.56,1.92-.87,2.97-.92,2.94-.44,5.85-1.14,8.67-2.1,1.1-.38,2.36-.98,2.53-2.13.34-2.13-3.25-4.19-1.79-5.78,1.15.52,2.4.72,3.65.59,1.3-.15,2.22-1.34,2.06-2.64h0c-.48-1.94-3.94-2.51-3.55-4.46.12-.44.34-.85.66-1.18,1.11-1.18,2.03-2.52,2.74-3.97.7-1.51.56-3.28-.38-4.65-1.25-1.55-3.55-1.69-5.52-1.29s-3.84,1.18-5.83,1.18c.12,1.61,1.76,2.58,3.14,3.42s2.85,2.29,2.31,3.82c-.7,1.97-4,1.83-4.82,3.76-.25.59-.21,1.27-.46,1.84-.57,1.02-1.86,1.37-2.86.8-.27-.15-.5-.35-.69-.61-1.44-2.61,3.55-5.68,1.96-8.28-.7-1.18-2.36-1.28-3.69-1.25-2.66,0-5.69.27-7.33,2.36s-1.18,4.63-1.53,7.09c-.53,4.47-3.22,8.28-5.43,12.26s-4.04,8.54-2.73,12.84c.14.54.41,1.05.79,1.47,1.18,1.11,3.24.4,4.08-.96.71-1.47.97-3.11.77-4.73-.19-1.09.17-2.2.95-2.98,1.18-.8,2.83.17,3.41,1.45.4,1.35.64,2.73.71,4.14.13,1.28.9,2.4,2.06,2.97,1.43.5,2.53-.6,3.13-1.79,1.18-2.22-.61-3.88-1.05-6.01-.47-1.51-.06-3.17,1.06-4.28Z"/>
      <path class="st8" d="M89.26,60.91c.48.96.9,1.94,1.27,2.94.45,1.89.65,3.84.59,5.79-.06,1.96.41,3.9,1.36,5.62,1.02,1.74,3.05,2.6,5,2.12l.9-4.53c.07-.78.37-1.53.85-2.14.96-.97,2.55-.73,3.89-.44-.31.89.18,1.86,1.06,2.16.32.11.67.12,1,.02l.08-4.15c1.82-.21,3.67.02,5.37.7-.46-1.93-2.03-3.38-3.98-3.7.95-.47,1.99-.67,3.04-.6,1.04-.09,2.26-.64,2.36-1.69-.01-.56-.22-1.09-.59-1.5-1.58-1.96-3.8-3.33-6.25-3.89-2.45-.54-4.97-.7-7.46-.47-.6,0-1.21.11-1.77.32-1.21.71-2.1,1.83-2.53,3.17"/>
      <path class="st8" d="M123,75.78c.64.61.97,1.48.9,2.36-.45,1.09-1.67,1.64-2.78,1.27-1.06-.38-2.06-.91-2.97-1.57-.95-.67-2.16-.83-3.24-.41-.48,1.6-.25,3.31.63,4.73.66.74,1.16,1.63,1.43,2.59.21,1.77-1.88,3.03-3.67,2.9-1.18-.07-2.47-.46-3.35.28-.72.78-.72,1.97,0,2.75.71.76,1.7,1.19,2.74,1.18,1.38.04,2.73-.38,3.85-1.18.91-.61,1.66-1.47,2.59-2.05.8-.46,1.66-.82,2.54-1.05,1.74-.65,3.56-1,5.42-1.05,1.89-.04,3.67.89,4.73,2.45.26.44.54.99,1.05.99s.82-.6.91-1.18c.27-1.63,0-3.68,1.35-4.62.93-.53,2.08-.47,2.96.15.85.64,1.56,1.44,2.1,2.36,2.45-2.6,5.11-5.91,4.06-9.36-.78-2.53-3.3-4.08-5.5-5.26s-4.58-2.19-6.89-3.17c-1.5-.67-3.1-1.12-4.73-1.34-.97-.11-1.95-.15-2.93-.14-.93,0-3.3-.31-3.89.38-.89,1.03-.5,3,0,4.1.71,1.42,1.62,2.72,2.68,3.89h0Z"/>
    </g>
  </g>
  <circle class="st2" cx="100.76" cy="109.01" r="48.13"/>
  <circle class="st2" cx="100.76" cy="108.87" r="58"/>
  <path class="st2" d="M169.74,108.87c0,35.97-27.5,65.49-62.63,68.69-.17-3.37-2.94-6.04-6.36-6.04s-6.2,2.67-6.36,6.04c-35.11-3.2-62.63-32.73-62.63-68.69s27.57-65.55,62.73-68.7c.51,3,3.12,5.28,6.28,5.28s5.77-2.28,6.27-5.28c35.16,3.18,62.7,32.71,62.7,68.7Z"/>
  <path class="st1" d="M52.97,103.25c-19.24,1.16-31.18,3.14-31.18,5.13s12.17,3.7,31.02,4.81c2.71.15,5.55.31,8.51.44,11.61.52,25.07.82,39.43.82s27.82-.3,39.43-.82c2.97-.13,5.81-.28,8.51-.44,18.86-1.11,31.02-2.85,31.02-4.81s-11.94-3.89-31.17-5.04"/>
</svg>