<?xml version="1.0" encoding="UTF-8"?>
<svg id="Layer_1" xmlns="http://www.w3.org/2000/svg" version="1.1" viewBox="0 0 96 60">
  <!-- Generator: Adobe Illustrator 29.3.1, SVG Export Plug-In . SVG Version: 2.1.0 Build 151)  -->
  <path d="M62.9,30.2c-.3,0-.2-.3-.2-.5,0-1,0-1.9-.2-2.8l-7.4-20.8,4.9,2c2.1-.7,3.9-2.1,6.1-2.6l5.7,5.6-8.8,19Z"/>
  <polygon points="40.9 53.9 36 52 30.1 54.6 24.5 49 33.1 30 33.8 34.1 40.9 53.9"/>
  <polygon points="71.9 37.1 70 42.1 72.6 47.9 66.8 53.6 48 44.9 52.3 44.1 71.9 37.1"/>
  <path d="M37.6,19.5c-.8.9-1.7,1.9-2.3,2.9-3.4,5.6-5.7,13-8.8,18.9s-.3.7-.5.6l-2-4.8-5.9-2.3v-8.2c0,0,19.6-7.1,19.6-7.1Z"/>
  <path d="M58.5,19.7c-1-.9-1.9-1.7-3.1-2.4-5.7-3.4-12.9-5.8-18.8-8.9s-.5-.1-.5-.4l4.9-2,2.2-6h8.2c0,0,7.1,19.7,7.1,19.7Z"/>
  <path d="M59.8,51.8c-1.3,1.3-3.3,1.4-4.9,2.3l-2,5.9h-8.4s-7.1-19.7-7.1-19.7c1.2,1.2,2.4,2.1,3.9,2.9l18.5,8.6Z"/>
  <polygon points="58.7 40.3 60.9 37.3 69.9 18.1 72.1 23 77.9 25.2 77.9 33.4 58.7 40.3"/>
  <polygon points="48 15.1 43.4 16 24.1 22.9 26.1 18 23.5 12.2 29.2 6.5 48 15.1"/>
</svg>